<svg width="39" height="39" viewBox="0 0 39 39" fill="none" xmlns="http://www.w3.org/2000/svg">
<g opacity="0.89">
<path d="M27.3743 9H11.6249C10.1792 9 9 10.1854 9 11.6016V23.4388C9 24.8921 10.1792 26.0404 11.6249 26.0404H15.5622V29.5029C15.5622 29.9084 16.0142 30.144 16.3464 29.9028L21.4691 26.0404H27.3751C28.8208 26.0404 30 24.855 30 23.4388V11.6016C29.9992 10.1854 28.8549 9 27.3743 9ZM28.0674 23.513C28.0674 23.8737 27.7701 24.1726 27.4112 24.1726H20.849L17.5678 26.6464V24.1726H11.6618C11.3029 24.1726 11.0056 23.8737 11.0056 23.513V11.6387C11.0056 11.278 11.3029 10.979 11.6618 10.979H27.4112C27.7701 10.979 28.0674 11.278 28.0674 11.6387V23.513Z" fill="white"/>
</g>
</svg>
