<?xml version="1.0" encoding="utf-8"?>
<!-- Generator: Adobe Illustrator 25.4.1, SVG Export Plug-In . SVG Version: 6.00 Build 0)  -->
<svg version="1.1" id="Layer_1" xmlns="http://www.w3.org/2000/svg" xmlns:xlink="http://www.w3.org/1999/xlink" x="0px" y="0px"
	 viewBox="0 0 343 87" style="enable-background:new 0 0 343 87;" xml:space="preserve">
<style type="text/css">
	.st0{fill:#FFF;}
	.st1{fill:url(#SVGID_1_);}
	.st2{fill:#1582B8;}
</style>
<path class="st0" d="M27.74,74.39c-3.44-1.87-6.14-4.45-8.09-7.75c-1.95-3.29-2.93-7.02-2.93-11.17c0-4.14,0.98-7.86,2.96-11.16
	c1.97-3.29,4.68-5.88,8.12-7.75s7.29-2.8,11.56-2.8c3.46,0,6.62,0.61,9.47,1.81c2.85,1.21,5.26,2.96,7.23,5.24l-5.07,4.76
	c-3.06-3.29-6.81-4.95-11.28-4.95c-2.89,0-5.49,0.64-7.78,1.9c-2.29,1.26-4.08,3.03-5.37,5.27c-1.28,2.25-1.93,4.8-1.93,7.67
	c0,2.85,0.65,5.41,1.93,7.67c1.28,2.25,3.08,4.01,5.37,5.27c2.29,1.26,4.89,1.9,7.78,1.9c4.46,0,8.22-1.67,11.28-5.01l5.07,4.82
	c-1.97,2.29-4.39,4.04-7.27,5.24c-2.88,1.21-6.04,1.81-9.5,1.81C35.03,77.19,31.18,76.25,27.74,74.39z"/>
<path class="st0" d="M151.04,34.35v42.23h-6.45l-23.29-28.6v28.6h-7.78V34.35h6.45l23.29,28.6v-28.6H151.04z"/>
<path class="st0" d="M199.91,34.35v42.23h-6.46l-23.29-28.6v28.6h-7.78V34.35h6.46l23.29,28.6v-28.6H199.91z"/>
<path class="st0" d="M303.44,40.99h-14v-6.64h35.84v6.64h-14v35.6h-7.84V40.99z"/>
<polygon class="st0" points="238.13,70.01 217.72,70.01 217.72,58.37 238.11,58.37 238.11,51.91 217.72,51.91 217.72,40.93 
	238.13,40.93 238.13,34.35 209.88,34.35 209.88,76.58 238.13,76.58 "/>
<g>
	<path class="st0" d="M263.96,41.3c1.49-0.43,3.07-0.68,4.76-0.68c4.46,0,8.23,1.65,11.28,4.95l5.07-4.76
		c-1.97-2.29-4.38-4.04-7.23-5.24c-2.85-1.21-6.01-1.81-9.47-1.81c-3.38,0-6.5,0.6-9.37,1.77C260.29,37.98,262.67,40.2,263.96,41.3z
		"/>
	<path class="st0" d="M268.72,70.31c-2.89,0-5.49-0.64-7.78-1.9c-2.29-1.26-4.08-3.03-5.37-5.27c-1.28-2.25-1.93-4.8-1.93-7.67
		c0-2.85,0.65-5.41,1.93-7.67c0.3-0.53,0.65-1.04,1-1.51c-1.5-1.86-4.59-3.61-6.18-4.42c-0.62,0.76-1.19,1.58-1.71,2.44
		c-1.97,3.29-2.96,7.02-2.96,11.16c0,4.15,0.97,7.86,2.92,11.17s4.65,5.88,8.09,7.75c3.44,1.87,7.29,2.8,11.56,2.8
		c3.46,0,6.63-0.61,9.5-1.81c2.87-1.21,5.3-2.96,7.27-5.24L280,65.31C276.95,68.64,273.19,70.31,268.72,70.31z"/>
</g>
<g>
	<linearGradient id="SVGID_1_" gradientUnits="userSpaceOnUse" x1="30.5329" y1="44.4951" x2="277.3319" y2="44.4951">
		<stop  offset="0.2251" style="stop-color:#1481B8"/>
		<stop  offset="0.5538" style="stop-color:#58BAAA"/>
	</linearGradient>
	<path class="st1" d="M268.65,46.79c-0.41,0-0.82,0.04-1.23,0.1c-4.62-1.63-9.61-9.76-11.66-11.13c0,0-0.48-0.37-0.73-0.55
		c-18.98-14.3-47.52-23.4-79.44-23.4c-29.75,0-56.51,7.93-75.37,20.58c0-0.01,0-0.03,0-0.04c-0.17,0.13-0.34,0.26-0.53,0.39
		c-0.22,0.15-0.44,0.29-0.65,0.44c-1.29,0.82-2.95,1.59-4.92,1.85c-1.72,0.23-3.2,0.02-4.4-0.26c-0.52-0.16-1.06-0.29-1.6-0.41
		c-0.41-0.11-0.75-0.19-1.03-0.22c-1.5-0.26-3.06-0.39-4.67-0.39c-4.3,0-8.19,0.93-11.65,2.8c-3.46,1.87-6.18,4.46-8.15,7.78
		c-1.53,2.57-2.45,5.37-2.79,8.41c-1.47,0.6-3.45,1.15-5.84,1.17c-2.82,0.02-5.1-0.71-6.65-1.4c-1.21-3.33-4.4-5.73-8.16-5.73
		c-4.79,0-8.68,3.88-8.68,8.68s3.88,8.68,8.68,8.68c3.66,0,6.78-2.27,8.06-5.48c1.6-0.54,3.74-1.05,6.3-1.09
		c2.52-0.04,4.66,0.39,6.3,0.9c0.37,2.93,1.29,5.64,2.77,8.12c1.97,3.31,4.69,5.91,8.15,7.78c3.46,1.87,7.34,2.8,11.65,2.8
		c4.3,0,8.19-0.93,11.65-2.8c3.46-1.87,6.18-4.45,8.15-7.75c1.97-3.29,2.96-7.02,2.96-11.17c0-4.14-0.99-7.86-2.96-11.16
		c-0.63-1.05-1.36-1.98-2.14-2.87c-0.02-0.04-0.02-0.08-0.07-0.13c-0.55-0.66-0.15-1.47-0.03-1.69
		c17.71-13.78,44.97-22.66,75.62-22.66c30.33,0,56.93,8.29,74.66,21.83c0.28,0.22,0.55,0.42,0.55,0.42
		c7.95,4.28,10.29,7.94,11.17,10.69c-1.25,1.51-2.02,3.44-2.02,5.56c0,4.79,3.88,8.68,8.68,8.68s8.68-3.88,8.68-8.68
		C277.33,50.67,273.44,46.79,268.65,46.79z M95.34,63.1c-1.28,2.27-3.06,4.04-5.31,5.31c-2.25,1.26-4.78,1.9-7.6,1.9
		c-2.81,0-5.35-0.64-7.6-1.9c-2.25-1.26-4.02-3.04-5.31-5.31c-1.28-2.27-1.93-4.81-1.93-7.64c0-2.81,0.65-5.36,1.93-7.64
		c1.28-2.27,3.06-4.04,5.31-5.31c2.25-1.26,4.78-1.9,7.6-1.9c2.81,0,5.35,0.64,7.6,1.9c2.25,1.26,4.02,3.04,5.31,5.31
		c1.28,2.27,1.93,4.81,1.93,7.64S96.63,60.83,95.34,63.1z"/>
	<circle class="st2" cx="82.71" cy="55.46" r="8.68"/>
</g>
</svg>
