<svg width="36" height="14" viewBox="0 0 36 14" fill="none" xmlns="http://www.w3.org/2000/svg">
<path d="M24.5758 4.82778C20.3066 3.43801 15.6773 3.43801 11.4031 4.83278L11.4081 9.23703C11.4081 9.78694 11.0931 10.2619 10.6382 10.4968C9.14845 11.2467 7.74369 12.2515 6.4989 13.4963C5.94399 14.0512 5.05415 14.0512 4.49924 13.4963L0.999833 9.9969C0.444928 9.442 0.444928 8.55215 0.999833 7.99724C10.3882 -1.39117 25.6057 -1.39117 34.9941 7.99724C35.549 8.55215 35.544 9.44699 34.9941 9.9969L31.4947 13.4963C30.9398 14.0512 30.0499 14.0512 29.495 13.4963C28.2502 12.2515 26.8454 11.2467 25.3557 10.4968C24.9008 10.2619 24.5858 9.78694 24.5858 9.23703L24.5758 4.82778Z" fill="white"/>
</svg>
