<svg width="18" height="21" viewBox="0 0 18 21" fill="none" xmlns="http://www.w3.org/2000/svg">
<path d="M18 12.286V5.9991C18 5.40233 17.7629 4.83 17.341 4.40801C16.919 3.98603 16.3467 3.74897 15.75 3.74897C15.4939 3.75144 15.2402 3.79813 15 3.88697V3.74897C15.0015 3.3807 14.9121 3.01776 14.74 2.69221C14.5679 2.36667 14.3182 2.08854 14.013 1.88242C13.7079 1.6763 13.3566 1.54854 12.9904 1.51041C12.6241 1.47229 12.2541 1.52498 11.913 1.66384C11.772 1.13744 11.4443 0.680332 10.9911 0.37777C10.5378 0.0752082 9.99002 -0.0521421 9.44981 0.0194739C8.90961 0.0910898 8.4139 0.356781 8.05515 0.766989C7.69639 1.1772 7.4991 1.70391 7.50007 2.24887V2.38688C7.25988 2.29803 7.00615 2.25135 6.75007 2.24887C6.15334 2.24887 5.58105 2.48594 5.15909 2.90792C4.73714 3.32991 4.50009 3.90224 4.50009 4.49901V10.3899L3.3571 9.3293C3.02119 8.99271 2.57467 8.7893 2.10028 8.75675C1.62589 8.7242 1.15578 8.86473 0.777055 9.15229C0.398335 9.43985 0.13668 9.85495 0.040573 10.3207C-0.0555342 10.7864 0.0204218 11.2712 0.254367 11.6852L3.20185 16.5537C3.48677 17.0195 3.89337 17.3986 4.37784 17.6503L3.77259 20.0677C3.74489 20.1783 3.74276 20.2937 3.76637 20.4053C3.78998 20.5168 3.8387 20.6215 3.90884 20.7114C3.97898 20.8013 4.06868 20.874 4.17113 20.924C4.27358 20.974 4.38608 21 4.50009 21H17.25C17.364 21 17.4765 20.974 17.579 20.924C17.6814 20.874 17.7711 20.8013 17.8413 20.7114C17.9114 20.6215 17.9601 20.5168 17.9837 20.4053C18.0073 20.2937 18.0052 20.1783 17.9775 20.0677L17.2275 17.0675C17.2023 16.9734 17.1588 16.8853 17.0995 16.8081C17.0401 16.7308 16.9662 16.6661 16.8818 16.6175C16.9403 16.5291 16.9941 16.4377 17.043 16.3437C17.6713 15.0833 17.9989 13.6943 18 12.286ZM1.55636 10.9404C1.50815 10.8524 1.48983 10.7511 1.50417 10.6519C1.51851 10.5526 1.56473 10.4606 1.63586 10.3899C1.68138 10.3457 1.7353 10.3111 1.79442 10.2881C1.85355 10.2651 1.91668 10.2542 1.9801 10.256C2.04351 10.2578 2.10592 10.2723 2.16363 10.2987C2.22134 10.325 2.27318 10.3626 2.3161 10.4094L6.23933 14.0493C6.31083 14.1199 6.39578 14.1754 6.48915 14.2126C6.58252 14.2497 6.68239 14.2677 6.78285 14.2655C6.8833 14.2632 6.98228 14.2409 7.07392 14.1996C7.16555 14.1584 7.24797 14.0992 7.31628 14.0255C7.38459 13.9518 7.43739 13.8651 7.47156 13.7707C7.50573 13.6762 7.52056 13.5758 7.51518 13.4754C7.5098 13.3751 7.48431 13.2768 7.44023 13.1865C7.39615 13.0962 7.33437 13.0157 7.25857 12.9498L6.00008 11.7812V4.49901C6.00008 4.30009 6.0791 4.10931 6.21975 3.96865C6.3604 3.82799 6.55116 3.74897 6.75007 3.74897C6.94898 3.74897 7.13975 3.82799 7.2804 3.96865C7.42105 4.10931 7.50007 4.30009 7.50007 4.49901V9.74932C7.50007 9.94825 7.57908 10.139 7.71974 10.2797C7.86039 10.4203 8.05115 10.4994 8.25006 10.4994C8.44897 10.4994 8.63974 10.4203 8.78039 10.2797C8.92104 10.139 9.00006 9.94825 9.00006 9.74932V2.24887C9.00006 2.04995 9.07907 1.85917 9.21973 1.71851C9.36038 1.57785 9.55114 1.49883 9.75005 1.49883C9.94897 1.49883 10.1397 1.57785 10.2804 1.71851C10.421 1.85917 10.5 2.04995 10.5 2.24887V9.74932C10.5 9.94825 10.5791 10.139 10.7197 10.2797C10.8604 10.4203 11.0511 10.4994 11.25 10.4994C11.449 10.4994 11.6397 10.4203 11.7804 10.2797C11.921 10.139 12 9.94825 12 9.74932V3.74897C12 3.55004 12.0791 3.35926 12.2197 3.2186C12.3604 3.07794 12.5511 2.99892 12.75 2.99892C12.9489 2.99892 13.1397 3.07794 13.2804 3.2186C13.421 3.35926 13.5 3.55004 13.5 3.74897V9.74932C13.5 9.94825 13.579 10.139 13.7197 10.2797C13.8603 10.4203 14.0511 10.4994 14.25 10.4994C14.4489 10.4994 14.6397 10.4203 14.7804 10.2797C14.921 10.139 15 9.94825 15 9.74932V5.9991C15 5.80018 15.079 5.6094 15.2197 5.46874C15.3603 5.32808 15.5511 5.24905 15.75 5.24905C15.9489 5.24905 16.1397 5.32808 16.2803 5.46874C16.421 5.6094 16.5 5.80018 16.5 5.9991V12.286C16.499 13.4609 16.2256 14.6195 15.7013 15.6709C15.5774 15.9206 15.386 16.1307 15.1489 16.2771C14.9117 16.4236 14.6383 16.5007 14.3595 16.4997H5.76758C5.50973 16.4989 5.2564 16.432 5.03176 16.3054C4.80711 16.1788 4.61864 15.9968 4.48434 15.7767L1.55636 10.9404ZM5.46083 19.4999L5.83583 17.9998H15.9143L16.2893 19.4999H5.46083Z" fill="white"/>
</svg>
