<svg width="29" height="22" viewBox="0 0 29 22" fill="none" xmlns="http://www.w3.org/2000/svg">
<path d="M23 12.286V5.9991C23 5.40233 22.7629 4.83 22.341 4.40801C21.919 3.98603 21.3467 3.74897 20.75 3.74897C20.4939 3.75144 20.2402 3.79813 20 3.88697V3.74897C20.0015 3.3807 19.9121 3.01776 19.74 2.69221C19.5679 2.36667 19.3182 2.08854 19.013 1.88242C18.7079 1.6763 18.3566 1.54854 17.9904 1.51041C17.6241 1.47229 17.2541 1.52498 16.913 1.66384C16.772 1.13744 16.4443 0.680332 15.9911 0.37777C15.5378 0.0752082 14.99 -0.0521421 14.4498 0.0194739C13.9096 0.0910898 13.4139 0.356781 13.0551 0.766989C12.6964 1.1772 12.4991 1.70391 12.5001 2.24887V2.38688C12.2599 2.29803 12.0062 2.25135 11.7501 2.24887C11.1533 2.24887 10.581 2.48594 10.1591 2.90792C9.73714 3.32991 9.50009 3.90224 9.50009 4.49901V10.3899L8.3571 9.3293C8.02119 8.99271 7.57467 8.7893 7.10028 8.75675C6.62589 8.7242 6.15578 8.86473 5.77706 9.15229C5.39834 9.43985 5.13668 9.85495 5.04057 10.3207C4.94447 10.7864 5.02042 11.2712 5.25437 11.6852L8.20185 16.5537C8.48677 17.0195 8.89337 17.3986 9.37784 17.6503L8.77259 20.0677C8.74489 20.1783 8.74276 20.2937 8.76637 20.4053C8.78998 20.5168 8.8387 20.6215 8.90884 20.7114C8.97898 20.8013 9.06868 20.874 9.17113 20.924C9.27358 20.974 9.38608 21 9.50009 21H22.25C22.364 21 22.4765 20.974 22.579 20.924C22.6814 20.874 22.7711 20.8013 22.8413 20.7114C22.9114 20.6215 22.9601 20.5168 22.9837 20.4053C23.0073 20.2937 23.0052 20.1783 22.9775 20.0677L22.2275 17.0675C22.2023 16.9734 22.1588 16.8853 22.0995 16.8081C22.0401 16.7308 21.9662 16.6661 21.8818 16.6175C21.9403 16.5291 21.9941 16.4377 22.043 16.3437C22.6713 15.0833 22.9989 13.6943 23 12.286ZM6.55636 10.9404C6.50815 10.8524 6.48983 10.7511 6.50417 10.6519C6.51851 10.5526 6.56473 10.4606 6.63586 10.3899C6.68138 10.3457 6.7353 10.3111 6.79442 10.2881C6.85355 10.2651 6.91668 10.2542 6.9801 10.256C7.04351 10.2578 7.10592 10.2723 7.16363 10.2987C7.22134 10.325 7.27318 10.3626 7.3161 10.4094L11.2393 14.0493C11.3108 14.1199 11.3958 14.1754 11.4892 14.2126C11.5825 14.2497 11.6824 14.2677 11.7828 14.2655C11.8833 14.2632 11.9823 14.2409 12.0739 14.1996C12.1656 14.1584 12.248 14.0992 12.3163 14.0255C12.3846 13.9518 12.4374 13.8651 12.4716 13.7707C12.5057 13.6762 12.5206 13.5758 12.5152 13.4754C12.5098 13.3751 12.4843 13.2768 12.4402 13.1865C12.3961 13.0962 12.3344 13.0157 12.2586 12.9498L11.0001 11.7812V4.49901C11.0001 4.30009 11.0791 4.10931 11.2197 3.96865C11.3604 3.82799 11.5512 3.74897 11.7501 3.74897C11.949 3.74897 12.1397 3.82799 12.2804 3.96865C12.4211 4.10931 12.5001 4.30009 12.5001 4.49901V9.74932C12.5001 9.94825 12.5791 10.139 12.7197 10.2797C12.8604 10.4203 13.0512 10.4994 13.2501 10.4994C13.449 10.4994 13.6397 10.4203 13.7804 10.2797C13.921 10.139 14.0001 9.94825 14.0001 9.74932V2.24887C14.0001 2.04995 14.0791 1.85917 14.2197 1.71851C14.3604 1.57785 14.5511 1.49883 14.7501 1.49883C14.949 1.49883 15.1397 1.57785 15.2804 1.71851C15.421 1.85917 15.5 2.04995 15.5 2.24887V9.74932C15.5 9.94825 15.5791 10.139 15.7197 10.2797C15.8604 10.4203 16.0511 10.4994 16.25 10.4994C16.449 10.4994 16.6397 10.4203 16.7804 10.2797C16.921 10.139 17 9.94825 17 9.74932V3.74897C17 3.55004 17.0791 3.35926 17.2197 3.2186C17.3604 3.07794 17.5511 2.99892 17.75 2.99892C17.9489 2.99892 18.1397 3.07794 18.2804 3.2186C18.421 3.35926 18.5 3.55004 18.5 3.74897V9.74932C18.5 9.94825 18.579 10.139 18.7197 10.2797C18.8603 10.4203 19.0511 10.4994 19.25 10.4994C19.4489 10.4994 19.6397 10.4203 19.7804 10.2797C19.921 10.139 20 9.94825 20 9.74932V5.9991C20 5.80018 20.079 5.6094 20.2197 5.46874C20.3603 5.32808 20.5511 5.24905 20.75 5.24905C20.9489 5.24905 21.1397 5.32808 21.2803 5.46874C21.421 5.6094 21.5 5.80018 21.5 5.9991V12.286C21.499 13.4609 21.2256 14.6195 20.7013 15.6709C20.5774 15.9206 20.386 16.1307 20.1489 16.2771C19.9117 16.4236 19.6383 16.5007 19.3595 16.4997H10.7676C10.5097 16.4989 10.2564 16.432 10.0318 16.3054C9.80711 16.1788 9.61864 15.9968 9.48434 15.7767L6.55636 10.9404ZM10.4608 19.4999L10.8358 17.9998H20.9143L21.2893 19.4999H10.4608Z" fill="white"/>
</svg>
