<svg width="10" height="8" viewBox="0 0 10 8" fill="none" xmlns="http://www.w3.org/2000/svg">
<path d="M3.2808e-07 7.42857C3.2808e-07 7.7216 0.214467 7.96314 0.490767 7.99617L0.555556 8L9.44444 8C9.75128 8 10 7.74417 10 7.42857C10 7.13554 9.78556 6.894 9.50922 6.86097L9.44444 6.85714L0.555556 6.85714C0.248734 6.85714 3.2808e-07 7.11297 3.2808e-07 7.42857ZM0.162717 0.167366C-0.0375496 0.37336 -0.0529552 0.697492 0.1165 0.921657L0.162717 0.975492L4.60717 5.54691C4.80745 5.75291 5.12256 5.76874 5.3405 5.59446L5.39283 5.54691L9.83728 0.975492C10.0542 0.752332 10.0542 0.390526 9.83728 0.167366C9.637 -0.0386225 9.32189 -0.0544682 9.10394 0.119829L9.05161 0.167366L5 4.33474L0.948395 0.167366C0.731434 -0.0557882 0.379678 -0.0557882 0.162717 0.167366Z" fill="#64748B"/>
</svg>
