<svg width="39" height="39" viewBox="0 0 39 39" fill="none" xmlns="http://www.w3.org/2000/svg">
<path fill-rule="evenodd" clip-rule="evenodd" d="M24 14C24 12.3431 22.6569 11 21 11C19.3431 11 18 12.3431 18 14C18 15.6569 19.3431 17 21 17C22.6569 17 24 15.6569 24 14ZM21 9C23.7614 9 26 11.2386 26 14C26 16.7614 23.7614 19 21 19C18.2386 19 16 16.7614 16 14C16 11.2386 18.2386 9 21 9ZM25 21C26.3261 21 27.5979 21.5268 28.5355 22.4645C29.4732 23.4021 30 24.6739 30 26V28C30 28.5523 29.5523 29 29 29C28.4477 29 28 28.5523 28 28V26C28 25.2044 27.6839 24.4413 27.1213 23.8787C26.5587 23.3161 25.7956 23 25 23H17C16.2044 23 15.4413 23.3161 14.8787 23.8787C14.3161 24.4413 14 25.2043 14 26V28C14 28.5523 13.5523 29 13 29C12.4477 29 12 28.5523 12 28V26C12 24.6739 12.5268 23.4021 13.4645 22.4645C14.4021 21.5268 15.6739 21 17 21H25ZM10.9682 21.8799C10.8302 21.3451 10.2847 21.0236 9.75 21.1616C8.67734 21.4386 7.72703 22.064 7.04829 22.9395C6.36956 23.8151 6.00083 24.8913 6 25.9991V25.9999V27.9999C6 28.5522 6.44772 28.9999 7 28.9999C7.55228 28.9999 8 28.5522 8 27.9999V26.0006V26.0003C8.00056 25.3357 8.22179 24.6901 8.62897 24.1649C9.03622 23.6395 9.6064 23.2643 10.25 23.0981C10.7847 22.9601 11.1063 22.4146 10.9682 21.8799ZM13.752 9.16113C14.287 9.02414 14.8318 9.34682 14.9688 9.88184C15.1057 10.4169 14.7831 10.9616 14.248 11.0986C13.6027 11.2639 13.0308 11.6392 12.6223 12.1654C12.2139 12.6916 11.9922 13.3388 11.9922 14.0049C11.9922 14.671 12.2139 15.3182 12.6223 15.8444C13.0308 16.3706 13.6027 16.7459 14.248 16.9111C14.7831 17.0481 15.1057 17.5929 14.9688 18.1279C14.8318 18.6629 14.287 18.9856 13.752 18.8486C12.6764 18.5733 11.7232 17.9478 11.0424 17.0707C10.3617 16.1937 9.99216 15.1151 9.99216 14.0049C9.99216 12.8947 10.3617 11.816 11.0424 10.939C11.7232 10.062 12.6764 9.43651 13.752 9.16113Z" fill="white"/>
</svg>
