<svg width="24" height="24" viewBox="0 0 24 24" fill="none" xmlns="http://www.w3.org/2000/svg">
<path d="M17.571 0.441108C16.9882 -0.144531 16.0414 -0.147527 15.4527 0.435118C15.2969 0.590889 15.189 0.775118 15.1156 0.966836C13.8692 3.56702 12.497 5.03336 10.7652 5.89909C8.82219 6.85768 6.59155 7.5242 2.99616 7.5242C2.80141 7.5242 2.60666 7.56165 2.42389 7.63804C2.05686 7.79081 1.76624 8.08288 1.61343 8.44835C1.46213 8.81381 1.46213 9.2272 1.61343 9.59266C1.68983 9.77689 1.79919 9.94315 1.93852 10.0809L6.79679 14.9383L0 24L9.06339 17.2045L13.9202 22.0604C14.058 22.2011 14.2243 22.309 14.4085 22.3854C14.5913 22.4618 14.7861 22.5022 14.9808 22.5022C15.1756 22.5022 15.3703 22.4618 15.5531 22.3854C15.9201 22.2326 16.2122 21.9435 16.3635 21.5751C16.4399 21.3938 16.4789 21.1976 16.4789 21.0044C16.4789 17.4097 17.144 15.1795 18.1013 13.2668C18.9657 11.5353 20.4323 10.1633 23.0345 8.91716C23.2277 8.84377 23.4105 8.73592 23.5648 8.58015C24.1476 7.99152 24.1446 7.04491 23.5588 6.46226L17.571 0.441108Z" fill="white"/>
</svg>
