<svg viewBox="0 0 11 8" fill="none" xmlns="http://www.w3.org/2000/svg">
<path d="M3.60888e-07 0.571428C3.60888e-07 0.2784 0.235914 0.0368571 0.539844 0.003829L0.611111 0L10.3889 0C10.7264 0 11 0.255828 11 0.571428C11 0.864457 10.7641 1.106 10.4601 1.13903L10.3889 1.14286L0.611111 1.14286C0.273607 1.14286 3.60888e-07 0.887028 3.60888e-07 0.571428ZM0.178989 7.83263C-0.0413046 7.62664 -0.0582507 7.30251 0.12815 7.07834L0.178989 7.02451L5.06788 2.45309C5.28819 2.24709 5.63481 2.23126 5.87455 2.40554L5.93212 2.45309L10.821 7.02451C11.0596 7.24767 11.0596 7.60947 10.821 7.83263C10.6007 8.03862 10.2541 8.05447 10.0143 7.88017L9.95677 7.83263L5.5 3.66526L1.04323 7.83263C0.804577 8.05579 0.417646 8.05579 0.178989 7.83263Z" fill="#64748B"/>
</svg>
