<svg width="20" height="21" viewBox="0 0 20 21" fill="none" xmlns="http://www.w3.org/2000/svg">
<path d="M10 19.0635C5.16751 19.0635 1.25 15.146 1.25 10.3135C1.25 5.48099 5.16751 1.56348 10 1.56348C14.8325 1.56348 18.75 5.48099 18.75 10.3135C18.75 15.146 14.8325 19.0635 10 19.0635ZM10 20.3135C15.5228 20.3135 20 15.8363 20 10.3135C20 4.79063 15.5228 0.313477 10 0.313477C4.47715 0.313477 0 4.79063 0 10.3135C0 15.8363 4.47715 20.3135 10 20.3135Z" fill="#EF4444"/>
<path d="M13.75 10.3135C13.75 12.3845 12.0711 14.0635 10 14.0635C7.92893 14.0635 6.25 12.3845 6.25 10.3135C6.25 8.24241 7.92893 6.56348 10 6.56348C12.0711 6.56348 13.75 8.24241 13.75 10.3135Z" fill="#EF4444"/>
</svg>
