<svg width="20" height="18" viewBox="0 0 20 18" fill="none" xmlns="http://www.w3.org/2000/svg">
<path fill-rule="evenodd" clip-rule="evenodd" d="M15.7071 0.292893C15.3166 -0.0976311 14.6834 -0.0976311 14.2929 0.292893C13.9024 0.683417 13.9024 1.31658 14.2929 1.70711L15.5858 3L14.2929 4.29289C13.9024 4.68342 13.9024 5.31658 14.2929 5.70711C14.6834 6.09763 15.3166 6.09763 15.7071 5.70711L17 4.41421L18.2929 5.70711C18.6834 6.09763 19.3166 6.09763 19.7071 5.70711C20.0976 5.31658 20.0976 4.68342 19.7071 4.29289L18.4142 3L19.7071 1.70711C20.0976 1.31658 20.0976 0.683417 19.7071 0.292893C19.3166 -0.0976311 18.6834 -0.0976311 18.2929 0.292893L17 1.58579L15.7071 0.292893ZM0.585786 0.585787C0.960859 0.210714 1.46957 1.86265e-08 2 1.86265e-08H11C11.5523 1.86265e-08 12 0.447715 12 1C12 1.55228 11.5523 2 11 2L2 2V12H7H13H18V9C18 8.44772 18.4477 8 19 8C19.5523 8 20 8.44772 20 9V12C20 12.5304 19.7893 13.0391 19.4142 13.4142C19.0391 13.7893 18.5304 14 18 14H14V16H15C15.5523 16 16 16.4477 16 17C16 17.5523 15.5523 18 15 18H13H7H5C4.44772 18 4 17.5523 4 17C4 16.4477 4.44772 16 5 16H6V14H2C1.46957 14 0.960859 13.7893 0.585786 13.4142C0.210714 13.0391 0 12.5304 0 12V2C0 1.46957 0.210714 0.960859 0.585786 0.585787ZM8 14H12V16H8V14Z" fill="#EA4335"/>
</svg>
