<svg width="22" height="22" viewBox="0 0 22 22" fill="none" xmlns="http://www.w3.org/2000/svg">
<circle cx="11" cy="11" r="11" fill="#22C55E"/>
<path fill-rule="evenodd" clip-rule="evenodd" d="M8.99427 7.56068C8.99427 6.69874 9.69302 6 10.555 6C11.4169 6 12.1156 6.69874 12.1156 7.56068C12.1156 8.42262 11.4169 9.12137 10.555 9.12137C9.69302 9.12137 8.99427 8.42262 8.99427 7.56068ZM10.555 4C8.58845 4 6.99427 5.59417 6.99427 7.56068C6.99427 9.52719 8.58845 11.1214 10.555 11.1214C12.5215 11.1214 14.1156 9.52719 14.1156 7.56068C14.1156 5.59417 12.5215 4 10.555 4ZM14.7952 10.0421H18.2317L16.9236 8.56333C16.812 8.43722 16.7593 8.28678 16.7593 8.12162C16.7593 7.80665 16.9896 7.48145 17.3257 7.48145C17.476 7.48145 17.6071 7.54322 17.7164 7.66709L19.9697 10.2143C20.0626 10.3193 20.1572 10.449 20.1572 10.6823C20.1572 10.9156 20.0782 11.028 19.9743 11.1455L17.7164 13.6975C17.6071 13.8214 17.476 13.8832 17.3257 13.8832C16.9893 13.8832 16.7593 13.5579 16.7593 13.243C16.7593 13.0778 16.812 12.9274 16.9236 12.8013L18.2317 11.3225H14.7952C14.4826 11.3225 14.2289 11.0357 14.2289 10.6823C14.2289 10.3289 14.4826 10.0421 14.7952 10.0421ZM12.7952 11.6812H8.26522C7.3569 11.6812 6.51467 12.0902 5.91447 12.7687C5.31779 13.4432 5 14.3345 5 15.2419V16.5223C5 17.0745 5.44772 17.5223 6 17.5223C6.55228 17.5223 7 17.0745 7 16.5223V15.2419C7 14.7911 7.15953 14.3797 7.41246 14.0938C7.66173 13.812 7.97159 13.6814 8.26466 13.6812V13.6816H12.7948C13.0881 13.6816 13.3982 13.8123 13.6476 14.0942C13.9005 14.3801 14.0601 14.7915 14.0601 15.2423V16.5227C14.0601 17.0749 14.5078 17.5227 15.0601 17.5227C15.6123 17.5227 16.0601 17.0749 16.0601 16.5227V15.2423C16.0601 14.3349 15.7423 13.4436 15.1456 12.7691C14.5455 12.0907 13.7034 11.6817 12.7952 11.6816V11.6812Z" fill="white"/>
</svg>
