<svg width="168" height="64" viewBox="0 0 168 64" fill="none" xmlns="http://www.w3.org/2000/svg">
<path d="M56.0577 28.692H65.3485V30.7378H61.9733V41.3282H59.4327V30.7375H56.0575V28.692H56.0577Z" fill="#4DC0AE"/>
<path d="M76.69 41.3279H74.1312V40.0608C73.496 40.9118 72.3892 41.4549 71.1371 41.4549C68.7961 41.4549 67.1086 39.9341 67.1086 37.1825V31.2986H69.6491V36.8202C69.6491 38.4314 70.5381 39.3004 71.881 39.3004C73.26 39.3004 74.1312 38.4314 74.1312 36.8202V31.2986H76.69V41.3279Z" fill="#4DC0AE"/>
<path d="M79.5936 33.3806H78.396V31.2986H79.5936V28.8185H82.1521V31.2986H84.4023V33.3806H82.1521V38.2323C82.1521 38.9022 82.4245 39.1918 83.2227 39.1918H84.4023V41.3279H82.8053C80.8818 41.3279 79.5934 40.5131 79.5934 38.2141V33.3806H79.5936Z" fill="#4DC0AE"/>
<path d="M90.6988 41.4909C87.7954 41.4909 85.5997 39.4633 85.5997 36.3133C85.5997 33.1451 87.8679 31.1357 90.7713 31.1357C93.6747 31.1357 95.9429 33.1451 95.9429 36.3133C95.9431 39.4633 93.6204 41.4909 90.6988 41.4909ZM90.6988 39.2824C92.0414 39.2824 93.3301 38.3047 93.3301 36.3135C93.3301 34.3039 92.0779 33.3447 90.735 33.3447C89.3921 33.3447 88.1762 34.3039 88.1762 36.3135C88.1765 38.3047 89.3378 39.2824 90.6988 39.2824Z" fill="#4DC0AE"/>
<path d="M100.353 41.3279H97.8122V31.2986H100.353V32.8557C100.988 31.8238 102.04 31.1539 103.438 31.1539V33.8152H102.766C101.26 33.8152 100.353 34.3945 100.353 36.3315V41.3279Z" fill="#4DC0AE"/>
<path d="M110.95 28.5291C113.762 28.5291 116.049 30.0315 116.902 32.6204H113.98C113.381 31.4074 112.293 30.8101 110.932 30.8101C108.718 30.8101 107.139 32.4213 107.139 34.992C107.139 37.5447 108.718 39.1739 110.932 39.1739C112.293 39.1739 113.382 38.5764 113.98 37.3454H116.902C116.049 39.9523 113.762 41.4367 110.95 41.4367C107.303 41.4367 104.526 38.7755 104.526 34.992C104.526 31.2086 107.303 28.5291 110.95 28.5291Z" fill="#1783B8"/>
<path d="M123.543 41.4909C120.64 41.4909 118.444 39.4633 118.444 36.3133C118.444 33.1451 120.713 31.1357 123.616 31.1357C126.519 31.1357 128.788 33.1451 128.788 36.3133C128.788 39.4633 126.465 41.4909 123.543 41.4909ZM123.543 39.2824C124.886 39.2824 126.175 38.3047 126.175 36.3135C126.175 34.3039 124.923 33.3447 123.58 33.3447C122.237 33.3447 121.021 34.3039 121.021 36.3135C121.021 38.3047 122.182 39.2824 123.543 39.2824Z" fill="#1783B8"/>
<path d="M144.72 35.7884C144.72 34.1952 143.831 33.3626 142.488 33.3626C141.127 33.3626 140.238 34.1954 140.238 35.7884V41.3279H137.697V35.7884C137.697 34.1952 136.808 33.3626 135.465 33.3626C134.086 33.3626 133.197 34.1954 133.197 35.7884V41.3279H130.656V31.2986H133.197V32.5116C133.832 31.6788 134.903 31.1539 136.155 31.1539C137.716 31.1539 139.004 31.8238 139.693 33.073C140.347 31.9323 141.671 31.1539 143.141 31.1539C145.555 31.1539 147.26 32.6745 147.26 35.4446V41.3282H144.72V35.7884Z" fill="#1783B8"/>
<path d="M155.535 31.136C158.112 31.136 160.126 33.1453 160.126 36.2774C160.126 39.4092 158.112 41.4911 155.535 41.4911C153.956 41.4911 152.831 40.7127 152.214 39.8979V46.1073H149.674V31.2986H152.214V32.7469C152.813 31.8962 153.974 31.136 155.535 31.136ZM154.864 33.3626C153.503 33.3626 152.214 34.4127 152.214 36.3135C152.214 38.2144 153.503 39.2644 154.864 39.2644C156.243 39.2644 157.531 38.1782 157.531 36.2774C157.531 34.3765 156.243 33.3626 154.864 33.3626Z" fill="#1783B8"/>
<path d="M38.6885 19.7534C38.6885 19.7534 37.3473 17.4891 35.2841 15.5851C33.2209 13.6815 30.6934 14.5042 30.6934 14.5042L7.27496 21.0917C13.8775 24.9507 16.6504 29.9257 17.0754 34.9339C17.7977 43.4431 16.5596 52.1219 16.5596 52.1219C16.5596 52.1219 31.8279 48.005 37.0895 46.2552C42.3509 44.5055 41.1128 44.6084 43.6918 33.4933C46.2708 22.378 50.2428 16.6145 50.2428 16.6145L38.6885 19.7534ZM35.6452 44.9517C30.9687 46.3241 18.9326 49.6176 18.9326 49.6176C18.9326 49.6176 19.0799 46.1356 19.206 42.7002C19.3086 39.904 19.3384 32.881 17.6522 29.0486C16.5572 26.5599 14.769 23.9006 11.8488 21.8979L30.556 16.6831C30.556 16.6831 32.2635 15.9382 33.8571 17.3692C35.6699 18.9974 37.8611 21.117 39.428 28.9649C40.9638 36.6593 40.21 40.2437 40.21 40.2437C40.21 40.2437 40.3215 43.5792 35.6452 44.9517Z" fill="url(#paint0_linear_1881_16081)"/>
<defs>
<linearGradient id="paint0_linear_1881_16081" x1="7.27491" y1="33.2246" x2="50.2428" y2="33.2246" gradientUnits="userSpaceOnUse">
<stop stop-color="#5BC1A0"/>
<stop offset="1" stop-color="#007EBD"/>
</linearGradient>
</defs>
</svg>
