<svg width="12" height="13" viewBox="0 0 12 13" fill="none" xmlns="http://www.w3.org/2000/svg">
<path d="M7.81827 12.6379H4.18191C3.57914 12.6379 3.00107 12.3984 2.57485 11.9722C2.14863 11.546 1.90918 10.9679 1.90918 10.3651V4.9106C1.90918 4.79005 1.95707 4.67443 2.04231 4.58919C2.12756 4.50394 2.24317 4.45605 2.36373 4.45605C2.48428 4.45605 2.59989 4.50394 2.68514 4.58919C2.77038 4.67443 2.81827 4.79005 2.81827 4.9106V10.3651C2.81827 10.7268 2.96194 11.0737 3.21767 11.3294C3.4734 11.5851 3.82025 11.7288 4.18191 11.7288H7.81827C8.17993 11.7288 8.52678 11.5851 8.78251 11.3294C9.03824 11.0737 9.18191 10.7268 9.18191 10.3651V4.9106C9.18191 4.79005 9.2298 4.67443 9.31504 4.58919C9.40028 4.50394 9.5159 4.45605 9.63645 4.45605C9.75701 4.45605 9.87262 4.50394 9.95786 4.58919C10.0431 4.67443 10.091 4.79005 10.091 4.9106V10.3651C10.091 10.9679 9.85155 11.546 9.42533 11.9722C8.99911 12.3984 8.42104 12.6379 7.81827 12.6379Z" fill="#F8FAFC" stroke="#F8FAFC" stroke-width="0.2"/>
<path d="M10.5455 3.54581H1.45455C1.33399 3.54581 1.21838 3.49792 1.13313 3.41268C1.04789 3.32743 1 3.21182 1 3.09126C1 2.97071 1.04789 2.8551 1.13313 2.76985C1.21838 2.68461 1.33399 2.63672 1.45455 2.63672H10.5455C10.666 2.63672 10.7816 2.68461 10.8669 2.76985C10.9521 2.8551 11 2.97071 11 3.09126C11 3.21182 10.9521 3.32743 10.8669 3.41268C10.7816 3.49792 10.666 3.54581 10.5455 3.54581Z" fill="#F8FAFC" stroke="#F8FAFC" stroke-width="0.2"/>
<path d="M7.81845 3.54563H4.18208C4.06153 3.54563 3.94592 3.49774 3.86067 3.4125C3.77543 3.32726 3.72754 3.21164 3.72754 3.09109V2.182C3.72754 1.82034 3.87121 1.47349 4.12694 1.21776C4.38267 0.962028 4.72952 0.818359 5.09118 0.818359H6.90936C7.27102 0.818359 7.61786 0.962028 7.87359 1.21776C8.12933 1.47349 8.27299 1.82034 8.27299 2.182V3.09109C8.27299 3.21164 8.2251 3.32726 8.13986 3.4125C8.05462 3.49774 7.939 3.54563 7.81845 3.54563ZM4.63663 2.63654H7.3639V2.182C7.3639 2.06144 7.31601 1.94583 7.23077 1.86058C7.14553 1.77534 7.02991 1.72745 6.90936 1.72745H5.09118C4.97062 1.72745 4.85501 1.77534 4.76976 1.86058C4.68452 1.94583 4.63663 2.06144 4.63663 2.182V2.63654Z" fill="#F8FAFC" stroke="#F8FAFC" stroke-width="0.2"/>
<path d="M5.09126 9.90927C4.97071 9.90927 4.8551 9.86138 4.76985 9.77614C4.68461 9.69089 4.63672 9.57528 4.63672 9.45472V6.2729C4.63672 6.15235 4.68461 6.03674 4.76985 5.95149C4.8551 5.86625 4.97071 5.81836 5.09126 5.81836C5.21182 5.81836 5.32743 5.86625 5.41268 5.95149C5.49792 6.03674 5.54581 6.15235 5.54581 6.2729V9.45472C5.54581 9.57528 5.49792 9.69089 5.41268 9.77614C5.32743 9.86138 5.21182 9.90927 5.09126 9.90927Z" fill="#F8FAFC" stroke="#F8FAFC" stroke-width="0.2"/>
<path d="M6.90914 9.90927C6.78858 9.90927 6.67297 9.86138 6.58772 9.77614C6.50248 9.69089 6.45459 9.57528 6.45459 9.45472V6.2729C6.45459 6.15235 6.50248 6.03674 6.58772 5.95149C6.67297 5.86625 6.78858 5.81836 6.90914 5.81836C7.02969 5.81836 7.1453 5.86625 7.23055 5.95149C7.31579 6.03674 7.36368 6.15235 7.36368 6.2729V9.45472C7.36368 9.57528 7.31579 9.69089 7.23055 9.77614C7.1453 9.86138 7.02969 9.90927 6.90914 9.90927Z" fill="#F8FAFC" stroke="#F8FAFC" stroke-width="0.2"/>
</svg>
