<svg width="29" height="22" viewBox="0 0 29 22" fill="none" xmlns="http://www.w3.org/2000/svg">
<path fill-rule="evenodd" clip-rule="evenodd" d="M18.4341 15.5313L26.2332 21.4385C26.6746 21.7725 27.3116 21.6924 27.6563 21.2598C28.001 20.8262 27.9227 20.2041 27.4813 19.8701L2.04718 0.605474C1.60577 0.270513 0.968809 0.351568 0.624083 0.784185C0.279356 1.21778 0.357725 1.83985 0.799131 2.17383L6.99396 6.86622C6.59869 6.88672 6.18365 6.89747 5.74664 6.89747C5.56793 6.89747 5.38946 6.93165 5.22198 7.00196C4.88556 7.14161 4.6192 7.40918 4.47906 7.74415C4.34039 8.07911 4.34039 8.45801 4.47906 8.79297C4.54913 8.96192 4.64923 9.11426 4.77691 9.24122L9.23053 13.6934L3.00006 22L11.3082 15.7705L15.7603 20.2217C15.8865 20.3506 16.0389 20.4502 16.2078 20.5195C16.3753 20.5898 16.554 20.627 16.7325 20.627C16.9109 20.627 17.0894 20.5898 17.2571 20.5195C17.5936 20.3799 17.8614 20.1152 18.0001 19.7773C18.0699 19.6113 18.1058 19.4307 18.1058 19.2539C18.1058 17.7959 18.2252 16.583 18.4341 15.5313ZM24.115 8.17383C21.8262 9.27051 20.4957 10.4727 19.6917 11.9697L11.7054 5.9209C11.8885 5.84961 12.0672 5.7754 12.2427 5.69825C12.4556 5.60547 12.6636 5.50782 12.8682 5.40723C14.4556 4.61426 15.7134 3.26954 16.856 0.886724C16.9234 0.710943 17.0223 0.541998 17.1651 0.398443C17.7046 -0.13476 18.5726 -0.132807 19.1067 0.404302L24.5955 5.92383C25.1326 6.45801 25.1353 7.3252 24.6011 7.86524C24.4598 8.00782 24.2921 8.10645 24.115 8.17383Z" fill="#EA4335"/>
</svg>
